<svg id="group" viewBox="0 0 18 16" fill="none" xmlns="http://www.w3.org/2000/svg">
<path fill-rule="evenodd" clip-rule="evenodd" d="M0.599609 2.00078C0.599609 1.68252 0.726038 1.3773 0.951081 1.15225C1.17612 0.92721 1.48135 0.800781 1.79961 0.800781H16.1996C16.5179 0.800781 16.8231 0.92721 17.0481 1.15225C17.2732 1.3773 17.3996 1.68252 17.3996 2.00078C17.3996 2.31904 17.2732 2.62427 17.0481 2.84931C16.8231 3.07435 16.5179 3.20078 16.1996 3.20078H1.79961C1.48135 3.20078 1.17612 3.07435 0.951081 2.84931C0.726038 2.62427 0.599609 2.31904 0.599609 2.00078Z" fill="#2F2F37"/>
<path fill-rule="evenodd" clip-rule="evenodd" d="M0.599609 8.00078C0.599609 7.68252 0.726038 7.3773 0.951081 7.15225C1.17612 6.92721 1.48135 6.80078 1.79961 6.80078H16.1996C16.5179 6.80078 16.8231 6.92721 17.0481 7.15225C17.2732 7.3773 17.3996 7.68252 17.3996 8.00078C17.3996 8.31904 17.2732 8.62427 17.0481 8.84931C16.8231 9.07435 16.5179 9.20078 16.1996 9.20078H1.79961C1.48135 9.20078 1.17612 9.07435 0.951081 8.84931C0.726038 8.62427 0.599609 8.31904 0.599609 8.00078Z" fill="#2F2F37"/>
<path fill-rule="evenodd" clip-rule="evenodd" d="M0.599609 14.0008C0.599609 13.6825 0.726038 13.3773 0.951081 13.1523C1.17612 12.9272 1.48135 12.8008 1.79961 12.8008H16.1996C16.5179 12.8008 16.8231 12.9272 17.0481 13.1523C17.2732 13.3773 17.3996 13.6825 17.3996 14.0008C17.3996 14.319 17.2732 14.6243 17.0481 14.8493C16.8231 15.0744 16.5179 15.2008 16.1996 15.2008H1.79961C1.48135 15.2008 1.17612 15.0744 0.951081 14.8493C0.726038 14.6243 0.599609 14.319 0.599609 14.0008Z" fill="#2F2F37"/>
</svg>
